<?xml version="1.0" encoding="UTF-8"?>
<!DOCTYPE svg PUBLIC "-//W3C//DTD SVG 1.1//EN" "http://www.w3.org/Graphics/SVG/1.1/DTD/svg11.dtd">
<svg xmlns="http://www.w3.org/2000/svg" version="1.1" width="500px" height="500px" style="shape-rendering:geometricPrecision; text-rendering:geometricPrecision; image-rendering:optimizeQuality; fill-rule:evenodd; clip-rule:evenodd" xmlns:xlink="http://www.w3.org/1999/xlink">
<g><path style="opacity:1" fill="#fefefe" d="M -0.5,-0.5 C 166.167,-0.5 332.833,-0.5 499.5,-0.5C 499.5,166.167 499.5,332.833 499.5,499.5C 332.833,499.5 166.167,499.5 -0.5,499.5C -0.5,332.833 -0.5,166.167 -0.5,-0.5 Z"/></g>
<g><path style="opacity:1" fill="#3dc7d7" d="M 269.5,6.5 C 269.365,12.181 269.032,17.8477 268.5,23.5C 245.274,22.382 222.274,24.0487 199.5,28.5C 198.178,22.9017 197.178,17.235 196.5,11.5C 206.837,8.53503 217.504,6.70169 228.5,6C 242.34,5.1728 256.006,5.33947 269.5,6.5 Z"/></g>
<g><path style="opacity:1" fill="#242424" d="M 269.5,6.5 C 275.537,6.98786 281.537,7.65453 287.5,8.5C 286.673,12.9636 286.006,17.4636 285.5,22C 285.629,23.9806 286.296,25.6472 287.5,27C 302.978,29.4527 317.978,33.6194 332.5,39.5C 335.221,34.3373 337.554,29.0039 339.5,23.5C 345.042,24.9374 350.375,26.9374 355.5,29.5C 353.735,35.0352 351.402,40.3685 348.5,45.5C 363.014,53.6775 377.014,62.6775 390.5,72.5C 394.412,68.3211 398.079,63.9878 401.5,59.5C 406.132,62.7978 410.466,66.4645 414.5,70.5C 411.255,75.0878 407.588,79.4212 403.5,83.5C 415.27,95.431 426.103,108.098 436,121.5C 440.949,118.28 445.783,114.947 450.5,111.5C 453.89,116.233 456.89,121.233 459.5,126.5C 454.674,129.804 449.674,132.97 444.5,136C 452.755,149.344 459.255,163.511 464,178.5C 464.519,179.516 465.353,180.182 466.5,180.5C 471.701,178.542 477.034,177.209 482.5,176.5C 484.147,181.756 485.481,187.089 486.5,192.5C 481.509,194.735 476.175,196.235 470.5,197C 469.978,197.561 469.645,198.228 469.5,199C 473.626,214.549 475.626,230.383 475.5,246.5C 481.5,246.5 487.5,246.5 493.5,246.5C 493.5,252.167 493.5,257.833 493.5,263.5C 487.243,264.258 480.909,264.258 474.5,263.5C 473.751,280.49 471.084,297.157 466.5,313.5C 472.132,314.991 477.799,316.325 483.5,317.5C 481.631,323.108 479.964,328.775 478.5,334.5C 473.052,333.24 467.719,331.573 462.5,329.5C 461.833,329.833 461.167,330.167 460.5,330.5C 454.6,345.468 447.267,359.634 438.5,373C 443.218,376.688 448.218,379.855 453.5,382.5C 450.425,387.643 447.092,392.643 443.5,397.5C 438.427,394.206 433.594,390.54 429,386.5C 418.907,399.928 407.407,412.095 394.5,423C 398.379,427.374 402.046,431.874 405.5,436.5C 401.235,440.638 396.569,444.305 391.5,447.5C 388.589,442.254 384.922,437.587 380.5,433.5C 366.785,442.693 352.452,450.859 337.5,458C 340.25,463.333 342.584,468.833 344.5,474.5C 338.833,476.5 333.167,478.5 327.5,480.5C 326.395,474.342 324.229,468.675 321,463.5C 305.588,468.811 289.754,472.145 273.5,473.5C 274.11,479.815 274.443,486.149 274.5,492.5C 271.833,492.5 269.167,492.5 266.5,492.5C 263.5,492.5 260.5,492.5 257.5,492.5C 257.5,486.833 257.5,481.167 257.5,475.5C 240.344,475.97 223.344,474.637 206.5,471.5C 205.406,477.158 204.406,482.825 203.5,488.5C 197.804,487.713 192.137,486.713 186.5,485.5C 187.573,479.805 188.907,474.139 190.5,468.5C 174.703,463.344 159.37,457.011 144.5,449.5C 142.079,453.34 139.912,457.34 138,461.5C 137.241,463.063 136.074,464.063 134.5,464.5C 129.576,462.233 124.909,459.567 120.5,456.5C 123.237,451.362 126.237,446.362 129.5,441.5C 115.92,432.534 103.253,422.367 91.5,411C 90.8333,410.333 90.1667,410.333 89.5,411C 85.631,415.037 81.631,418.87 77.5,422.5C 73.5,418.167 69.5,413.833 65.5,409.5C 70.2795,406.223 74.6129,402.39 78.5,398C 68.3806,384.925 58.8806,371.425 50,357.5C 44.9007,360.3 39.734,362.966 34.5,365.5C 32.1667,360.167 29.8333,354.833 27.5,349.5C 31.9559,347.108 36.6226,344.942 41.5,343C 42.0585,342.275 42.3918,341.442 42.5,340.5C 36.4175,325.587 31.7508,310.253 28.5,294.5C 22.5551,295.755 16.5551,296.755 10.5,297.5C 9.499,291.492 8.499,285.492 7.5,279.5C 13.5164,279.407 19.5164,279.074 25.5,278.5C 23.3401,261.541 23.0068,244.541 24.5,227.5C 18.4836,227.407 12.4836,227.074 6.5,226.5C 7.55691,220.547 8.22358,214.547 8.5,208.5C 14.7416,210.04 21.0749,211.04 27.5,211.5C 29.2839,194.98 33.6172,179.147 40.5,164C 35.6579,161.55 30.6579,159.383 25.5,157.5C 24.7025,157.043 24.3691,156.376 24.5,155.5C 26.5968,150.311 28.9302,145.311 31.5,140.5C 36.7183,143.026 41.885,145.693 47,148.5C 54.7574,133.977 63.7574,120.31 74,107.5C 74.6877,106.668 74.521,106.002 73.5,105.5C 69.148,102.143 64.8147,98.8093 60.5,95.5C 63.8112,90.5553 67.8112,86.222 72.5,82.5C 77.1073,85.7683 81.4406,89.4349 85.5,93.5C 96.8143,82.0117 109.148,71.845 122.5,63C 123.451,62.2825 123.617,61.4491 123,60.5C 119.97,55.9845 116.803,51.6512 113.5,47.5C 118.489,43.6692 123.822,40.3359 129.5,37.5C 131.737,42.9775 134.737,47.9775 138.5,52.5C 153.221,44.7727 168.221,37.9394 183.5,32C 181.928,26.4522 180.261,20.9522 178.5,15.5C 184.551,14.2902 190.551,12.9569 196.5,11.5C 197.178,17.235 198.178,22.9017 199.5,28.5C 222.274,24.0487 245.274,22.382 268.5,23.5C 269.032,17.8477 269.365,12.181 269.5,6.5 Z"/></g>
<g><path style="opacity:1" fill="#3dc5d4" d="M 287.5,8.5 C 305.788,10.7331 323.121,15.7331 339.5,23.5C 337.554,29.0039 335.221,34.3373 332.5,39.5C 317.978,33.6194 302.978,29.4527 287.5,27C 286.296,25.6472 285.629,23.9806 285.5,22C 286.006,17.4636 286.673,12.9636 287.5,8.5 Z"/></g>
<g><path style="opacity:1" fill="#3cc6d5" d="M 178.5,15.5 C 180.261,20.9522 181.928,26.4522 183.5,32C 168.221,37.9394 153.221,44.7727 138.5,52.5C 134.737,47.9775 131.737,42.9775 129.5,37.5C 144.91,28.2986 161.243,20.9653 178.5,15.5 Z"/></g>
<g><path style="opacity:1" fill="#3cc5d5" d="M 355.5,29.5 C 372.236,37.5227 387.569,47.5227 401.5,59.5C 398.079,63.9878 394.412,68.3211 390.5,72.5C 377.014,62.6775 363.014,53.6775 348.5,45.5C 351.402,40.3685 353.735,35.0352 355.5,29.5 Z"/></g>
<g><path style="opacity:1" fill="#3dc6d6" d="M 113.5,47.5 C 116.803,51.6512 119.97,55.9845 123,60.5C 123.617,61.4491 123.451,62.2825 122.5,63C 109.148,71.845 96.8143,82.0117 85.5,93.5C 81.4406,89.4349 77.1073,85.7683 72.5,82.5C 77.9382,75.2271 84.2715,68.7271 91.5,63C 98.3658,57.0761 105.699,51.9094 113.5,47.5 Z"/></g>
<g><path style="opacity:1" fill="#f80cfa" d="M 210.5,255.5 C 211.399,258.395 212.733,261.062 214.5,263.5C 211.729,265.767 209.062,268.267 206.5,271C 205.551,271.617 204.718,271.451 204,270.5C 185.116,239.899 166.616,209.066 148.5,178C 181.652,146.351 215.318,115.184 249.5,84.5C 250.583,83.635 250.749,82.635 250,81.5C 244.972,74.107 240.472,66.4403 236.5,58.5C 238.963,56.5389 241.297,54.3722 243.5,52C 244.5,51.3333 245.5,51.3333 246.5,52C 252.459,61.4164 258.292,70.9164 264,80.5C 264.667,81.5 264.667,82.5 264,83.5C 230.103,114.736 196.27,145.903 162.5,177C 177.951,203.592 193.951,229.759 210.5,255.5 Z"/></g>
<g><path style="opacity:1" fill="#22b6cf" d="M 236.5,58.5 C 240.472,66.4403 244.972,74.107 250,81.5C 250.749,82.635 250.583,83.635 249.5,84.5C 215.318,115.184 181.652,146.351 148.5,178C 166.616,209.066 185.116,239.899 204,270.5C 204.718,271.451 205.551,271.617 206.5,271C 209.062,268.267 211.729,265.767 214.5,263.5C 238.135,242.007 261.801,220.507 285.5,199C 287.464,197.549 288.797,195.716 289.5,193.5C 293.084,191.261 296.417,188.594 299.5,185.5C 300.943,188.077 302.61,190.41 304.5,192.5C 308.472,200.44 312.972,208.107 318,215.5C 318.749,216.635 318.583,217.635 317.5,218.5C 286.5,247 255.5,275.5 224.5,304C 247.374,342.25 270.374,380.416 293.5,418.5C 287.119,425.548 280.452,432.215 273.5,438.5C 270.349,440.583 267.349,442.916 264.5,445.5C 263.057,442.923 261.39,440.59 259.5,438.5C 206.308,349.956 152.975,261.456 99.5,173C 139.17,135.332 179.503,98.3325 220.5,62C 221.252,61.3292 221.586,60.4959 221.5,59.5C 224.781,57.3944 227.948,55.0611 231,52.5C 233.06,54.2823 234.893,56.2823 236.5,58.5 Z"/></g>
<g><path style="opacity:1" fill="#01fbfb" d="M 221.5,59.5 C 221.586,60.4959 221.252,61.3292 220.5,62C 179.503,98.3325 139.17,135.332 99.5,173C 152.975,261.456 206.308,349.956 259.5,438.5C 257.098,441.215 254.432,443.715 251.5,446C 250.668,446.688 250.002,446.521 249.5,445.5C 194.619,355.121 139.952,264.621 85.5,174C 129.103,133.736 172.769,93.4025 216.5,53C 217.332,52.3123 217.998,52.479 218.5,53.5C 219.559,55.5336 220.559,57.5336 221.5,59.5 Z"/></g>
<g><path style="opacity:1" fill="#3dc6d6" d="M 414.5,70.5 C 428.625,82.292 440.625,95.9587 450.5,111.5C 445.783,114.947 440.949,118.28 436,121.5C 426.103,108.098 415.27,95.431 403.5,83.5C 407.588,79.4212 411.255,75.0878 414.5,70.5 Z"/></g>
<g><path style="opacity:1" fill="#3cc6d5" d="M 60.5,95.5 C 64.8147,98.8093 69.148,102.143 73.5,105.5C 74.521,106.002 74.6877,106.668 74,107.5C 63.7574,120.31 54.7574,133.977 47,148.5C 41.885,145.693 36.7183,143.026 31.5,140.5C 39.2036,124.151 48.8703,109.151 60.5,95.5 Z"/></g>
<g><path style="opacity:1" fill="#3cc6d6" d="M 459.5,126.5 C 469.457,142.005 477.124,158.671 482.5,176.5C 477.034,177.209 471.701,178.542 466.5,180.5C 465.353,180.182 464.519,179.516 464,178.5C 459.255,163.511 452.755,149.344 444.5,136C 449.674,132.97 454.674,129.804 459.5,126.5 Z"/></g>
<g><path style="opacity:1" fill="#3dc5d5" d="M 24.5,155.5 C 24.3691,156.376 24.7025,157.043 25.5,157.5C 30.6579,159.383 35.6579,161.55 40.5,164C 33.6172,179.147 29.2839,194.98 27.5,211.5C 21.0749,211.04 14.7416,210.04 8.5,208.5C 11.8387,190.125 17.172,172.458 24.5,155.5 Z"/></g>
<g><path style="opacity:1" fill="#f80bfa" d="M 273.5,438.5 C 280.452,432.215 287.119,425.548 293.5,418.5C 270.374,380.416 247.374,342.25 224.5,304C 255.5,275.5 286.5,247 317.5,218.5C 318.583,217.635 318.749,216.635 318,215.5C 312.972,208.107 308.472,200.44 304.5,192.5C 307.483,189.526 310.817,187.359 314.5,186C 320,194.833 325.5,203.667 331,212.5C 332.187,214.044 332.52,215.711 332,217.5C 300.833,246 269.667,274.5 238.5,303C 261.833,341.333 285.167,379.667 308.5,418C 299.5,426.333 290.5,434.667 281.5,443C 280.241,443.982 278.908,444.315 277.5,444C 276.512,441.833 275.179,440 273.5,438.5 Z"/></g>
<g><path style="opacity:1" fill="#02f9fa" d="M 289.5,193.5 C 288.797,195.716 287.464,197.549 285.5,199C 261.801,220.507 238.135,242.007 214.5,263.5C 212.733,261.062 211.399,258.395 210.5,255.5C 235.237,232.284 260.237,209.284 285.5,186.5C 287.11,188.725 288.443,191.059 289.5,193.5 Z"/></g>
<g><path style="opacity:1" fill="#3dc6d6" d="M 486.5,192.5 C 491.431,210.027 493.764,228.027 493.5,246.5C 487.5,246.5 481.5,246.5 475.5,246.5C 475.626,230.383 473.626,214.549 469.5,199C 469.645,198.228 469.978,197.561 470.5,197C 476.175,196.235 481.509,194.735 486.5,192.5 Z"/></g>
<g><path style="opacity:1" fill="#3cc5d5" d="M 6.5,226.5 C 12.4836,227.074 18.4836,227.407 24.5,227.5C 23.0068,244.541 23.3401,261.541 25.5,278.5C 19.5164,279.074 13.5164,279.407 7.5,279.5C 5.32678,261.907 4.99345,244.24 6.5,226.5 Z"/></g>
<g><path style="opacity:1" fill="#3dc5d4" d="M 493.5,263.5 C 492.304,282.024 488.971,300.024 483.5,317.5C 477.799,316.325 472.132,314.991 466.5,313.5C 471.084,297.157 473.751,280.49 474.5,263.5C 480.909,264.258 487.243,264.258 493.5,263.5 Z"/></g>
<g><path style="opacity:1" fill="#3dc5d4" d="M 27.5,349.5 C 19.0585,333.174 13.3918,315.84 10.5,297.5C 16.5551,296.755 22.5551,295.755 28.5,294.5C 31.7508,310.253 36.4175,325.587 42.5,340.5C 42.3918,341.442 42.0585,342.275 41.5,343C 36.6226,344.942 31.9559,347.108 27.5,349.5 Z"/></g>
<g><path style="opacity:1" fill="#3dc6d5" d="M 478.5,334.5 C 472.233,351.704 463.9,367.704 453.5,382.5C 448.218,379.855 443.218,376.688 438.5,373C 447.267,359.634 454.6,345.468 460.5,330.5C 461.167,330.167 461.833,329.833 462.5,329.5C 467.719,331.573 473.052,333.24 478.5,334.5 Z"/></g>
<g><path style="opacity:1" fill="#3cc6d5" d="M 65.5,409.5 C 53.6435,395.965 43.3102,381.299 34.5,365.5C 39.734,362.966 44.9007,360.3 50,357.5C 58.8806,371.425 68.3806,384.925 78.5,398C 74.6129,402.39 70.2795,406.223 65.5,409.5 Z"/></g>
<g><path style="opacity:1" fill="#3dc6d6" d="M 443.5,397.5 C 432.874,412.46 420.207,425.46 405.5,436.5C 402.046,431.874 398.379,427.374 394.5,423C 407.407,412.095 418.907,399.928 429,386.5C 433.594,390.54 438.427,394.206 443.5,397.5 Z"/></g>
<g><path style="opacity:1" fill="#3cc5d5" d="M 120.5,456.5 C 104.854,446.842 90.5212,435.508 77.5,422.5C 81.631,418.87 85.631,415.037 89.5,411C 90.1667,410.333 90.8333,410.333 91.5,411C 103.253,422.367 115.92,432.534 129.5,441.5C 126.237,446.362 123.237,451.362 120.5,456.5 Z"/></g>
<g><path style="opacity:1" fill="#3cc6d5" d="M 391.5,447.5 C 376.979,458.268 361.312,467.268 344.5,474.5C 342.584,468.833 340.25,463.333 337.5,458C 352.452,450.859 366.785,442.693 380.5,433.5C 384.922,437.587 388.589,442.254 391.5,447.5 Z"/></g>
<g><path style="opacity:1" fill="#3cc6d5" d="M 186.5,485.5 C 168.204,480.678 150.87,473.678 134.5,464.5C 136.074,464.063 137.241,463.063 138,461.5C 139.912,457.34 142.079,453.34 144.5,449.5C 159.37,457.011 174.703,463.344 190.5,468.5C 188.907,474.139 187.573,479.805 186.5,485.5 Z"/></g>
<g><path style="opacity:1" fill="#3dc4d3" d="M 327.5,480.5 C 310.462,486.777 292.795,490.777 274.5,492.5C 274.443,486.149 274.11,479.815 273.5,473.5C 289.754,472.145 305.588,468.811 321,463.5C 324.229,468.675 326.395,474.342 327.5,480.5 Z"/></g>
<g><path style="opacity:1" fill="#3dc5d4" d="M 266.5,492.5 C 248.269,494.038 229.935,493.538 211.5,491C 208.543,490.721 205.877,489.887 203.5,488.5C 204.406,482.825 205.406,477.158 206.5,471.5C 223.344,474.637 240.344,475.97 257.5,475.5C 257.5,481.167 257.5,486.833 257.5,492.5C 260.5,492.5 263.5,492.5 266.5,492.5 Z"/></g>
</svg>
